# xmcd CD database file
#
# Track frame offsets:
#	200
#	18237
#	37650
#	58205
#	72362
#	92860
#	113550
#	136457
#	155470
#	175407
#	197802
#
# Disc length: 2722 seconds
#
# Revision: 1
# Processed by: cddbd v1.5.2PL0 Copyright (c) Steve Scherf et al.
# Submitted via: CDex 1.70beta2
#
DISCID=920aa00b
DTITLE=Newsong - All Around The World
DYEAR=1993
DGENRE=Contemporary Christian
TTITLE0=It's A Wonderful Life
TTITLE1=More God
TTITLE2=All Around The World
TTITLE3=Reach Out, I'll Be There
TTITLE4=From This Moment On
TTITLE5=Field Of Faith
TTITLE6=Fingertips and Noses
TTITLE7=Got Me Going
TTITLE8=Hero Of The Faith (Billy)
TTITLE9=Simple Things
TTITLE10=All Around The World (Repise)
EXTD=YEAR: 1993
EXTT0=
EXTT1=
EXTT2=
EXTT3=
EXTT4=
EXTT5=
EXTT6=
EXTT7=
EXTT8=
EXTT9=
EXTT10=
PLAYORDER=
